<svg xmlns="http://www.w3.org/2000/svg" xmlns:xlink="http://www.w3.org/1999/xlink" viewBox="0 0 14.51 26.88"><defs><style>.cls-1,.cls-3{fill:none;}.cls-2{clip-path:url(#clip-path);}.cls-3{stroke:#e40912;stroke-width:1.5px;}</style><clipPath id="clip-path" transform="translate(0)"><rect class="cls-1" width="14.51" height="26.88"/></clipPath></defs><title>Ресурс 4</title><g id="Слой_2" data-name="Слой 2"><g id="Слой_1-2" data-name="Слой 1"><g class="cls-2"><path class="cls-3" d="M5.8,3.11H8.71m.35,20.16a.47.47,0,0,1-.46.47H5.91a.47.47,0,0,1-.46-.47V22.22a.48.48,0,0,1,.46-.48H8.6a.48.48,0,0,1,.46.48ZM.76,21.64h13m0,3.54a.94.94,0,0,1-.92.95H1.67a.93.93,0,0,1-.92-.95V1.7A.94.94,0,0,1,1.67.75H12.84a.94.94,0,0,1,.92,1Z" transform="translate(0)"/></g></g></g></svg>