<svg id="Layer_1" data-name="Layer 1" xmlns="http://www.w3.org/2000/svg" viewBox="0 0 603.91 371.01"><defs><style>.cls-1{fill:red;}</style></defs><title>icon</title><path class="cls-1" d="M486,9a6.12,6.12,0,0,1,3.18,11.39L431.36,54.82a13.78,13.78,0,0,0-4.79,18.83l78.09,131.81a13.65,13.65,0,0,0,8.44,6.32,13.88,13.88,0,0,0,3.42.43,13.71,13.71,0,0,0,6.92-1.89l0.1-.06,0.1-.06L585.17,172a6,6,0,0,1,3.2-.93,6.27,6.27,0,0,1,1.48.18,6,6,0,0,1,3.82,2.82l0.08,0.14,0.31,0.53a6.24,6.24,0,0,1-2,8.34l-61.89,38.46a27,27,0,0,1-13.72,3.79,26.61,26.61,0,0,1-7.35-1l-18.93-5.44,8.28,17.87a30.53,30.53,0,0,1-27.66,43.25l-1,0-6.9-.22-2,6.61a30.52,30.52,0,0,1-29,21.58l-1,0-6.92-.23-2,6.63a30.07,30.07,0,0,1-11.38,15.86,30.7,30.7,0,0,1-26,4.59l-6.89-1.92-3.42,6.28a30.53,30.53,0,0,1-47.74,7.51l-4.93-4.68-5.85,3.47-20.88,12.37a30.54,30.54,0,0,1-44.68-17.16l-2.83-9.07-8.9,3.31a30,30,0,0,1-10.5,1.89,30.78,30.78,0,0,1-7.63-1,30.3,30.3,0,0,1-18.68-14,30.7,30.7,0,0,1-3.52-8.83l-1.76-7.73-7.89.78c-1,.1-2,0.15-2.95.15A31.1,31.1,0,0,1,174.15,304a29.76,29.76,0,0,1-12.39-9.06,31,31,0,0,1-5.81-11.3l-2.25-8.21-8.32,1.79a30.23,30.23,0,0,1-6.33.67,30.5,30.5,0,0,1-26.27-46.19l4.7-7.81-7.87-4.6-0.35-.2L104,216l-4.8,3.72a26.72,26.72,0,0,1-30.06,1.76L51.08,210.69,12,185.86A6.52,6.52,0,0,1,14,174a6.65,6.65,0,0,1,1.54-.18,6.36,6.36,0,0,1,3.46,1l38.61,24.56,0.11,0.07,0.11,0.07,17.95,10.7a13.7,13.7,0,0,0,7,1.94,14,14,0,0,0,7.74-2.36l1.8-1.21,1.05-1.9c1.45-2.62,4.69-8,11.77-20l0-.06c6.67-11.2,15.93-26.72,27.53-46.13,20-33.5,40-66.93,40-67a13.8,13.8,0,0,0-4.68-18.73L168,54.82l-0.12-.07L110.06,21.94A6.52,6.52,0,0,1,107.84,13a6.57,6.57,0,0,1,5.63-3.18,6.37,6.37,0,0,1,3.27.89l0.06,0,0.06,0,57.89,32.86a26.84,26.84,0,0,1,12.55,27.94l-1.68,8.78,8.77,1.74a34.91,34.91,0,0,0,19.42-1.71h0l22.06-8.67a41.74,41.74,0,0,1,15.33-2.92,42.2,42.2,0,0,1,10.35,1.3l33.85,8.57,1.4,0.38,3.61,1,3.28-1.83c12.75-7.09,21.08-9.85,29.72-9.85,6.09,0,12.54,1.4,20.31,4.4l19.59,7.57A35,35,0,0,0,404,77.85l3.25-1.92,4.66-2.75-0.24-5.41a26.72,26.72,0,0,1,13-24.14L482.91,9.82A6,6,0,0,1,486,9M309.06,182.71a41.16,41.16,0,0,1-29.28-12.11,41.59,41.59,0,0,1-7.9-11l-4.3-8.7-8.35,4.95-126.62,75c-0.18.11-.37,0.21-0.56,0.3l-0.79.37-0.7.51q-0.27.19-.53,0.35a17.46,17.46,0,0,0,17.8,30L238,209a6.39,6.39,0,0,1,3.3-.91,6.57,6.57,0,0,1,5.64,3.19,6.52,6.52,0,0,1-2.29,8.93l-68.29,40.46a17.47,17.47,0,0,0,17.9,30l68.23-40.42a6.39,6.39,0,0,1,3.3-.91,6.57,6.57,0,0,1,5.63,3.19,6.52,6.52,0,0,1-2.29,8.94l-50.35,29.83-0.05,0-0.05,0a17.47,17.47,0,0,0,4.79,31.82,17.43,17.43,0,0,0,13.23-1.89L283.4,293.6a6.39,6.39,0,0,1,3.3-.91,6.55,6.55,0,0,1,6.36,5l0.8,3.23-2.15,2.54a6.56,6.56,0,0,1-1.67,1.4l-19.7,11.67a17.47,17.47,0,0,0,17.82,30l18.53-11,7-4.14-3.39-7.37a30.52,30.52,0,0,1-2.71-14.34l0.3-5.58,2.2-5.11a30.13,30.13,0,0,1,10.08-12.59,30.55,30.55,0,0,1,8.22-4.18l7.63-2.53-1.65-7.87a30.51,30.51,0,0,1,29.76-36.8l1,0L372,235.3l2-6.62a30.51,30.51,0,0,1,29.08-21.6,31.13,31.13,0,0,1,5,.41,30.09,30.09,0,0,1,13,5.4L428,218l5.39-6.66a30.42,30.42,0,0,1,35.4-9l25,10.45L480,189.45l-57.46-97L418,84.77l-7.72,4.5a47.92,47.92,0,0,1-41.64,3.3L349.05,85c-5.54-2.14-10.27-3.57-15.35-3.57a29.41,29.41,0,0,0-8.52,1.31l-11.6,3.47,6.66,10.11a41.86,41.86,0,0,1,6.91,23.11V164.6a18.13,18.13,0,0,1-18.08,18.11m-90.5-90.15a48.44,48.44,0,0,1-17.5,3.31A47.24,47.24,0,0,1,185,93l-7-2.53-3.8,6.41L115,196.81l-4.62,7.79,7.82,4.57,5.29,3.09c0.79,0.47,1.58,1,2.33,1.47l4.72,3.18,4.89-2.9L270.85,133.8a6.52,6.52,0,0,1,9.84,5.61v1.91a28.36,28.36,0,0,0,22.6,27.76l10.81,2.22V119.42a28.93,28.93,0,0,0-15.25-25.53l-0.35-.19-0.36-.15c-0.2-.08-0.39-0.18-0.58-0.28l-0.34-.19-0.36-.16a29.16,29.16,0,0,0-4.64-1.6l-33.85-8.57a28.88,28.88,0,0,0-17.71,1.12l-22.11,8.69M470.7,266.89a17.46,17.46,0,0,0,14.17-27.64l-13.58-18.92c-0.3-.42-0.63-0.83-1-1.23l-0.3-.34-0.33-.31-0.33-.34-0.31-.34-0.35-.31a17.46,17.46,0,0,0-25.76,23.26l0,0,13.54,18.86a17.33,17.33,0,0,0,11.35,7,17.59,17.59,0,0,0,2.85.23m-39,28a17.46,17.46,0,0,0,14.17-27.63l-28.57-39.8a17.36,17.36,0,0,0-11.36-7,17.69,17.69,0,0,0-2.86-.23A17.47,17.47,0,0,0,389,247.78l28.57,39.8a17.51,17.51,0,0,0,14.19,7.27m-38.95,28A17.47,17.47,0,0,0,407,295.19l-0.12-.17-28.46-39.64A17.46,17.46,0,1,0,350,275.74l28.57,39.8a17.35,17.35,0,0,0,11.36,7,17.63,17.63,0,0,0,2.84.23m-45.34,19.08a17.46,17.46,0,0,0,14.22-27.57l-0.16-.23L352.1,301a17.46,17.46,0,0,0-28.35,20.39l5.41,7.53,0,0.05,0,0.05,0.07,0.1,0,0.05,0,0.05,3.87,5.4a17.5,17.5,0,0,0,14.19,7.27M486,0a15,15,0,0,0-7.56,2L420.08,35.89a35.61,35.61,0,0,0-17.43,32.29L399.4,70.1A26,26,0,0,1,376.59,72L357,64.43c-8.87-3.43-16.44-5-23.55-5-11.38,0-21.6,4-34.09,11q-0.86-.25-1.72-0.47l-33.85-8.57a50.72,50.72,0,0,0-31.18,2L210.56,72a26.1,26.1,0,0,1-9.41,1.77,25.78,25.78,0,0,1-5-.49,35.72,35.72,0,0,0-16.85-37.41L121.3,3A15.52,15.52,0,0,0,98.4,20.19a15.42,15.42,0,0,0,7.13,9.52l57.9,32.87A4.76,4.76,0,0,1,165.06,69S145,102.48,125,136c-10,16.75-20,33.52-27.53,46.14-7.16,12-10.43,17.51-11.95,20.25a4.93,4.93,0,0,1-2.72.83,4.65,4.65,0,0,1-2.4-.67l-18-10.7L23.87,167.27a15.39,15.39,0,0,0-8.29-2.43,15.62,15.62,0,0,0-3.63.43,15.52,15.52,0,0,0-4.74,28.19l39.15,24.9,18.17,10.84a35.72,35.72,0,0,0,40.18-2.37l0.35,0.2a39.54,39.54,0,0,0,42.2,59,40.11,40.11,0,0,0,7.48,14.56,38.78,38.78,0,0,0,16.14,11.81,40.13,40.13,0,0,0,14.57,2.77q1.92,0,3.83-.19a39.81,39.81,0,0,0,4.55,11.42A39.25,39.25,0,0,0,218,344.49a39.72,39.72,0,0,0,9.86,1.25,39,39,0,0,0,13.64-2.46A39.53,39.53,0,0,0,299.4,365.5l20.88-12.37a39.54,39.54,0,0,0,61.84-9.73,39.7,39.7,0,0,0,33.69-6,39.12,39.12,0,0,0,14.75-20.58l1.32,0a39.52,39.52,0,0,0,37.65-28l1.24,0a39.52,39.52,0,0,0,35.82-56,35.69,35.69,0,0,0,28.24-3.72l62-38.5a15.21,15.21,0,0,0,5-20.6l-0.4-.67h0a15,15,0,0,0-9.42-7,15.25,15.25,0,0,0-3.61-.44,15,15,0,0,0-8,2.29l-61.53,38.23a4.65,4.65,0,0,1-2.37.65,4.86,4.86,0,0,1-1.2-.15,4.65,4.65,0,0,1-2.92-2.18L434.31,69.06A4.76,4.76,0,0,1,436,62.55l57.77-34.44A15.12,15.12,0,0,0,486,0h0ZM309.07,191.71a27.14,27.14,0,0,0,27.07-27.11V119.42a50.89,50.89,0,0,0-8.39-28.06,20.41,20.41,0,0,1,5.94-.93c3.6,0,7.19,1.06,12.11,3L365.4,101A56.92,56.92,0,0,0,414.81,97l57.46,97a39.55,39.55,0,0,0-45.87,11.6,39.18,39.18,0,0,0-16.85-7,40,40,0,0,0-6.48-.53,39.51,39.51,0,0,0-37.7,28l-1.28,0a39.49,39.49,0,0,0-38.88,33.1,39.57,39.57,0,0,0,.31,14.56,39.65,39.65,0,0,0-10.63,5.41,39,39,0,0,0-13.11,16.35,15.54,15.54,0,0,0-23-9.62l-46.67,27.65a8.42,8.42,0,0,1-4.3,1.18,8.53,8.53,0,0,1-2.12-.27A8.46,8.46,0,0,1,223.41,299l50.35-29.83a15.52,15.52,0,0,0-15.82-26.7l-68.23,40.42a8.4,8.4,0,0,1-4.3,1.18,8.56,8.56,0,0,1-2.12-.27,8.47,8.47,0,0,1-2.3-15.43l68.29-40.45a15.52,15.52,0,0,0-15.82-26.71l-90.21,53.44a8.37,8.37,0,0,1-4.28,1.18,8.53,8.53,0,0,1-2.12-.27,8.46,8.46,0,0,1-2.22-15.47c0.43-.25.84-0.53,1.25-0.82s0.9-.45,1.33-0.7l126.62-75a50.78,50.78,0,0,0,9.6,13.38,50.08,50.08,0,0,0,35.65,14.75h0Zm-108-86.84a57.51,57.51,0,0,0,20.77-3.92L244,92.25a19.88,19.88,0,0,1,12.21-.77L290,100a20.15,20.15,0,0,1,3.21,1.11c0.44,0.24.9,0.47,1.37,0.67a19.91,19.91,0,0,1,10.51,17.6v40.85a19.36,19.36,0,0,1-15.41-18.95v-1.91a15.53,15.53,0,0,0-23.43-13.36L130.83,206.27q-1.37-.92-2.79-1.77l-5.31-3.1,59.19-99.9a56.27,56.27,0,0,0,19.15,3.37h0Zm269.64,153a8.54,8.54,0,0,1-1.39-.11,8.4,8.4,0,0,1-5.5-3.41L450.28,235.5l0-.06a8.46,8.46,0,0,1,12.49-11.26q0.38,0.41.78,0.79c0.17,0.2.33,0.4,0.47,0.6l13.58,18.92a8.46,8.46,0,0,1-6.86,13.39h0Zm-39,28a8.45,8.45,0,0,1-6.88-3.52l-28.57-39.8a8.47,8.47,0,0,1,1.94-11.81,8.36,8.36,0,0,1,4.9-1.59,8.69,8.69,0,0,1,1.4.11,8.41,8.41,0,0,1,5.5,3.42l28.57,39.8a8.45,8.45,0,0,1-6.86,13.39h0Zm-38.95,28a8.57,8.57,0,0,1-1.39-.11,8.41,8.41,0,0,1-5.5-3.41l-28.57-39.8a8.46,8.46,0,0,1,13.74-9.87l28.46,39.64,0.12,0.16a8.46,8.46,0,0,1-6.85,13.39h0Zm-45.34,19.08a8.45,8.45,0,0,1-6.88-3.52l-3.87-5.4-0.22-.31-5.41-7.53a8.46,8.46,0,0,1,13.73-9.88l9.4,13.09,0.15,0.21a8.45,8.45,0,0,1-6.89,13.34h0ZM279.27,340a8.46,8.46,0,0,1-4.33-15.75l19.69-11.66a15.55,15.55,0,0,0,3.95-3.33,39.4,39.4,0,0,0,3.52,18.58l-18.53,11a8.41,8.41,0,0,1-4.3,1.18h0Z"/></svg>