<svg id="Layer_1" data-name="Layer 1" xmlns="http://www.w3.org/2000/svg" viewBox="0 0 556.15 488.71"><defs><style>.cls-1{fill:red;}</style></defs><title>icon</title><path class="cls-1" d="M216.71,310.83H42a6.65,6.65,0,0,0,0,13.29H216.71a6.65,6.65,0,0,0,0-13.29h0Z"/><path class="cls-1" d="M216.71,329.65H42a6.65,6.65,0,1,0,0,13.29H216.71a6.65,6.65,0,0,0,0-13.29h0Z"/><path class="cls-1" d="M514,310.83H339.33a6.65,6.65,0,0,0,0,13.29H514a6.65,6.65,0,0,0,0-13.29h0Z"/><path class="cls-1" d="M514,329.65H339.33a6.65,6.65,0,1,0,0,13.29H514a6.65,6.65,0,1,0,0-13.29h0Z"/><path class="cls-1" d="M366,425.5H191.33a6.65,6.65,0,0,0,0,13.29H366a6.65,6.65,0,0,0,0-13.29h0Z"/><path class="cls-1" d="M366,444.32H191.33a6.65,6.65,0,1,0,0,13.29H366a6.65,6.65,0,1,0,0-13.29h0Z"/><path class="cls-1" d="M437.11,13.5a9.34,9.34,0,0,1,9.33,9.33v207.8a9.34,9.34,0,0,1-9.33,9.33h-33.2v52.81H542.15a0.73,0.73,0,0,1,.51.78v66.66a0.73,0.73,0,0,1-.51.78H312a0.73,0.73,0,0,1-.51-0.78V293.56a0.73,0.73,0,0,1,.51-0.78h84.87V240h-117V407H393.38a0.73,0.73,0,0,1,.51.78v66.66a0.73,0.73,0,0,1-.51.78H163.21a0.73,0.73,0,0,1-.51-0.78V407.76a0.73,0.73,0,0,1,.51-0.78H276.76V240H162.14v52.81h82a0.73,0.73,0,0,1,.51.78v66.66a0.73,0.73,0,0,1-.51.78H14a0.73,0.73,0,0,1-.51-0.78V293.56a0.73,0.73,0,0,1,.51-0.78H155.06V240H119.48a9.34,9.34,0,0,1-9.33-9.33V22.83a9.34,9.34,0,0,1,9.33-9.33H437.11m-319.57,57h30.6L150.45,65l0.77-1.85a7.16,7.16,0,0,1,6.63-4.42H201a7.17,7.17,0,0,1,6.63,4.42L208.37,65l2.31,5.53H439.06V19.85H117.54V70.51m0,163.1H439.05v-159H212.77a7.17,7.17,0,0,1-6.63-4.42l-0.77-1.85-2.31-5.53H155.77l-2.31,5.53-0.77,1.85a7.16,7.16,0,0,1-6.63,4.41H117.54v159M316.37,357.53H537.82V296.26H316.37v61.27m-298,0H239.82V296.26H18.37v61.27M168,472.19H389.49V410.92H168v61.27M437.11,4.5H119.48a18.35,18.35,0,0,0-18.33,18.33v207.8A18.35,18.35,0,0,0,119.48,249h26.58v34.81H14a9.66,9.66,0,0,0-9.51,9.78v66.66A9.66,9.66,0,0,0,14,370H244.18a9.66,9.66,0,0,0,9.51-9.78V293.56a9.66,9.66,0,0,0-9.51-9.78h-73V249h96.63V398H163.21a9.66,9.66,0,0,0-9.51,9.78v66.66a9.66,9.66,0,0,0,9.51,9.78H393.38a9.66,9.66,0,0,0,9.51-9.78V407.76a9.66,9.66,0,0,0-9.51-9.78H288.83V249h99v34.81H312a9.66,9.66,0,0,0-9.51,9.78v66.66A9.66,9.66,0,0,0,312,370H542.15a9.66,9.66,0,0,0,9.51-9.78V293.56a9.66,9.66,0,0,0-9.51-9.78H412.91V249h24.2a18.35,18.35,0,0,0,18.33-18.33V22.83A18.35,18.35,0,0,0,437.11,4.5h0Zm-310.57,57V28.85H430.06V61.51H216.68l-0.77-1.85a16.14,16.14,0,0,0-14.94-10H157.86a16.14,16.14,0,0,0-14.93,9.95l-0.77,1.85H126.54Zm0,163.1v-141h19.52A16.14,16.14,0,0,0,161,73.62l0.77-1.85h35.3l0.77,1.85a16.14,16.14,0,0,0,14.94,10H430.06v141H126.54ZM325.37,348.53V305.26H528.82v43.27H325.37Zm-298,0V305.26H230.82v43.27H27.37ZM177,463.19V419.92H380.49v43.27H177Z"/></svg>