<svg width="97" height="88" viewBox="0 0 97 88" fill="none" xmlns="http://www.w3.org/2000/svg">
<g opacity="0.2">
<path d="M23.9 62.1848C23.5 62.5181 23.1 62.8848 22.7 63.2848L16.5 57.0848C19.1 54.4848 22.6 53.3848 26 53.6848C23.3 53.9848 20.8 55.0848 18.8 57.0848L23.9 62.1848Z" fill="black"/>
<path d="M34.6004 58.8867C34.6004 58.9534 34.6337 58.9867 34.7004 58.9867C34.567 58.9867 34.4671 58.9867 34.4004 58.9867C34.4671 58.9201 34.5337 58.8867 34.6004 58.8867V58.8867Z" fill="black"/>
</g>
<path fill-rule="evenodd" clip-rule="evenodd" d="M33.1 57.0836C33.7 57.6836 34.2333 58.3169 34.7 58.9836C30.4 58.5836 26 59.9836 22.7 63.2836L16.5 57.0836C21.1 52.4836 28.6 52.4836 33.1 57.0836ZM94.6 32.1836L64.1 1.78359C61.8 -0.516406 58.1 -0.516406 55.8 1.78359L49.6 7.98361L75.7 34.0836C79.3 37.6836 79.3 43.4836 75.7 47.0836L48.2 74.5836C48 78.1836 46.6 81.6836 43.9 84.3836L47.3 87.8836L94.6 40.5836C96.9 38.2836 96.9 34.4836 94.6 32.1836V32.1836Z" fill="url(#paint0_linear_151_712)"/>
<path opacity="0.2" d="M48.2994 86.7831L47.2994 87.8831L43.8994 84.3831C46.5994 81.6831 47.9994 78.1831 48.1994 74.5831L75.6994 47.0831C79.2994 43.4831 79.2994 37.6831 75.6994 34.0831L49.5994 7.9831L55.7994 1.78308C57.1994 0.283084 59.1995 -0.216897 60.9995 0.0831026C59.8995 0.283103 58.7994 0.883084 57.8994 1.78308L51.6994 7.9831L77.7994 34.0831C81.3994 37.6831 81.3994 43.4831 77.7994 47.0831L50.2994 74.5831C50.1994 78.1831 48.6995 81.6831 45.9995 84.3831L48.2994 86.7831Z" fill="black"/>
<path d="M73.4 44.7828L47.8 70.3828L38.8 79.3828L35.4 75.9828C39.8 71.5828 40.9 65.2828 38.8 59.8828C38 58.0828 36.9 56.2828 35.4 54.7828C29.6 48.9828 20.1 48.9828 14.3 54.7828L8.5 49.0828L0 40.5828L34.6 5.98281C37 3.68281 40.7 3.68281 43 5.98281L47.3 10.2828L73.4 36.3828C75.8 38.6828 75.8 42.4828 73.4 44.7828Z" fill="#979797"/>
<g opacity="0.1">
<path d="M39.7998 78.3829L38.7998 79.3829L35.3998 75.9829C39.7998 71.5829 40.8998 65.2829 38.7998 59.8829C37.9998 58.0829 36.8998 56.2829 35.3998 54.7829C32.6998 52.1829 29.2998 50.6829 25.7998 50.4829C29.8998 50.1829 34.1998 51.6829 37.2998 54.7829C38.7998 56.2829 39.8998 58.0829 40.6998 59.8829C42.7998 65.2829 41.6998 71.5829 37.2998 75.9829L39.7998 78.3829Z" fill="black"/>
<path d="M15.3 53.8825C14.9667 54.2158 14.6333 54.5158 14.3 54.7825L8.5 49.0825L0 40.5825L34.6 5.98251C36 4.58251 38 3.9825 39.8 4.2825C38.6 4.4825 37.5 5.08251 36.6 5.98251L2 40.5825L10.4 49.0825L15.3 53.8825Z" fill="black"/>
</g>
<defs>
<linearGradient id="paint0_linear_151_712" x1="57825.7" y1="23185.9" x2="57825.7" y2="29948.4" gradientUnits="userSpaceOnUse">
<stop stop-color="#ED1C24"/>
<stop offset="1" stop-color="#565096"/>
</linearGradient>
</defs>
</svg>
