<svg xmlns="http://www.w3.org/2000/svg" xmlns:xlink="http://www.w3.org/1999/xlink" viewBox="0 0 30.46 34.4"><defs><style>.cls-1,.cls-3,.cls-4{fill:none;}.cls-2{clip-path:url(#clip-path);}.cls-3,.cls-4{stroke:#e40912;stroke-width:1.5px;}.cls-3{stroke-miterlimit:10;}.cls-4{stroke-linejoin:round;}.cls-5{fill:#fff;}</style><clipPath id="clip-path" transform="translate(0 0)"><rect class="cls-1" width="30.46" height="34.4"/></clipPath></defs><title>Ресурс 7</title><g id="Слой_2" data-name="Слой 2"><g id="Слой_1-2" data-name="Слой 1"><g class="cls-2"><path class="cls-3" d="M20.85,14.74a8.59,8.59,0,1,1-8.59-8.59A8.6,8.6,0,0,1,20.85,14.74ZM23.41,30a.51.51,0,0,1-.51.51H19.07a.51.51,0,0,1-.51-.51V28.46a.5.5,0,0,1,.51-.5H22.9a.5.5,0,0,1,.51.5Zm-11.14-2.2H29.7m-17.44-24v-2a1,1,0,0,1,1-1H28.69a1,1,0,0,1,1,1V32.63a1,1,0,0,1-1,1H13.28a1,1,0,0,1-1-1V25.55" transform="translate(0 0)"/></g><path class="cls-4" d="M10,14.19l-3.33-.72,1.19-3.2m6.69,5,3.34.73-1.2,3.19" transform="translate(0 0)"/><rect class="cls-5" x="4.05" y="18.76" width="4.19" height="3.87" transform="translate(-5.98 2.83) rotate(-17.64)"/><rect class="cls-5" x="16.23" y="6.84" width="4.19" height="3.87" transform="translate(-1.8 5.97) rotate(-17.64)"/><g class="cls-2"><path class="cls-3" d="M17.61,16.16a40.3,40.3,0,0,1-3.78,2c-6.3,2.9-12.1,3.72-13,1.84-.47-1,.6-2.63,2.69-4.35M7,13.29a39.45,39.45,0,0,1,3.74-2c6.29-2.9,12.1-3.72,13-1.83.48,1-.66,2.71-2.85,4.47" transform="translate(0 0)"/></g></g></g></svg>