<svg xmlns="http://www.w3.org/2000/svg" xmlns:xlink="http://www.w3.org/1999/xlink" viewBox="0 0 22.05 21.31"><defs><style>.cls-1,.cls-3,.cls-6{fill:none;}.cls-2{clip-path:url(#clip-path);}.cls-3,.cls-6{stroke:#e40912;}.cls-3{stroke-width:1.5px;}.cls-4{fill:#e40912;}.cls-5{fill:#fff;}</style><clipPath id="clip-path"><rect class="cls-1" width="22.05" height="21.31"/></clipPath></defs><title>Ресурс 2</title><g id="Слой_2" data-name="Слой 2"><g id="Слой_1-2" data-name="Слой 1"><g class="cls-2"><path class="cls-3" d="M6.62,6.18V1.66A.89.89,0,0,0,5.75.75H1.62a.89.89,0,0,0-.87.91V6.18a.88.88,0,0,0,.87.9v6.8a.89.89,0,0,0-.87.91v4.52a.88.88,0,0,0,.87.9H5.75a.88.88,0,0,0,.87-.9V14.79a.89.89,0,0,0-.87-.91V7.08A.88.88,0,0,0,6.62,6.18Z"/><path class="cls-4" d="M13.74,8.81A1.19,1.19,0,1,0,12.55,10a1.19,1.19,0,0,0,1.19-1.18"/><path class="cls-4" d="M17.57,8.81A1.19,1.19,0,1,0,16.39,10a1.18,1.18,0,0,0,1.18-1.18"/><path class="cls-4" d="M21.41,8.81A1.19,1.19,0,1,0,20.22,10a1.19,1.19,0,0,0,1.19-1.18"/><path class="cls-4" d="M13.74,12.58a1.19,1.19,0,1,0-1.19,1.18,1.18,1.18,0,0,0,1.19-1.18"/><path class="cls-4" d="M17.57,12.58a1.19,1.19,0,1,0-1.18,1.18,1.18,1.18,0,0,0,1.18-1.18"/><path class="cls-4" d="M21.41,12.58a1.19,1.19,0,1,0-1.19,1.18,1.19,1.19,0,0,0,1.19-1.18"/><path class="cls-4" d="M17.57,20.13a1.19,1.19,0,1,0-1.18,1.18,1.18,1.18,0,0,0,1.18-1.18"/><path class="cls-4" d="M13.74,16.35a1.19,1.19,0,1,0-1.19,1.18,1.18,1.18,0,0,0,1.19-1.18"/><path class="cls-4" d="M17.57,16.35a1.19,1.19,0,1,0-1.18,1.18,1.18,1.18,0,0,0,1.18-1.18"/><path class="cls-4" d="M21.41,16.35a1.19,1.19,0,1,0-1.19,1.18,1.19,1.19,0,0,0,1.19-1.18"/></g><rect class="cls-5" x="11.22" y="1.52" width="10.33" height="2.4"/><g class="cls-2"><rect class="cls-6" x="11.22" y="1.52" width="10.33" height="2.4"/></g></g></g></svg>