<svg id="Layer_1" data-name="Layer 1" xmlns="http://www.w3.org/2000/svg" viewBox="0 0 471.85 471.85"><defs><style>.cls-1{fill:red;}</style></defs><title>icon</title><path class="cls-1" d="M207.9,389.75a4.53,4.53,0,0,1,4.51,3.88l9,59.47a4.57,4.57,0,0,1-4.51,5.25H18.06a4.57,4.57,0,0,1-4.51-5.25l9-59.47a4.53,4.53,0,0,1,4.51-3.87H207.9m-56.44,59.47h60.18l-1.57-10.35-4.92-32.35L204,398.87H143.8l1.57,10.35,4.92,32.35,1.16,7.65m-128.09,0h62l1.16-7.65,4.92-32.35L93,398.87H31l-1.16,7.65-4.92,32.35-1.57,10.35M207.9,380.75H27.1A13.56,13.56,0,0,0,13.7,392.28l-9,59.47a13.57,13.57,0,0,0,13.41,15.6H216.94a13.57,13.57,0,0,0,13.41-15.6l-9-59.47a13.56,13.56,0,0,0-13.41-11.52h0Zm-48.71,59.47-4.92-32.35h42l4.92,32.35h-42Zm-125.35,0,4.92-32.35H82.54l-4.92,32.35H33.84Z"/><path class="cls-1" d="M176.87,13.5a4.45,4.45,0,0,1,3.21,1.33l121,121a4.57,4.57,0,0,1-.76,7.06L258.12,170a4.56,4.56,0,0,1-5.69-.61L243.12,160l-6.36-6.36L230.39,160l-10.14,10.14-6.59,6.59,6.81,6.36,226.07,211a37.12,37.12,0,1,1-52.47,52.47l-211-226.08-6.36-6.81-6.59,6.59L160,230.39l-6.36,6.36,6.36,6.36,9.32,9.32a4.59,4.59,0,0,1,.61,5.69l-27.06,42.19a4.56,4.56,0,0,1-7.06.76l-121-121A4.57,4.57,0,0,1,15.6,173L57.79,146a4.56,4.56,0,0,1,5.69.61l9.32,9.32,6.36,6.36,6.36-6.36,70.37-70.37,6.36-6.36-6.36-6.36-9.32-9.32a4.58,4.58,0,0,1-.61-5.69L173,15.6a4.52,4.52,0,0,1,3.85-2.1h0m79.41,146.79,6.1-3.91,18.82-12.07,9.41-6-7.9-7.9L185.54,33.19l-7.9-7.9-6,9.41L159.53,53.52l-3.91,6.1,5.12,5.12,46.1,46.1,44.32,44.33,5.12,5.12m-109.08,70,6.36-6.36,70.37-70.37,6.36-6.36-6.36-6.36-16.57-16.57L175.06,92,168.7,85.6,162.33,92,92,162.34,85.6,168.7,92,175.06l48.88,48.88,6.36,6.36m-8.94,60.31,6-9.41,12.07-18.82,3.91-6.1-5.12-5.12L64.74,160.74l-5.12-5.12-6.1,3.91L34.7,171.6l-9.41,6,7.9,7.9,97.17,97.17,7.9,7.9m175.92,57,6.59-6.59L341,320.78l6.59-6.59-6.81-6.36L213.57,189.13l-6.36-5.93-6.15,6.15-11.72,11.72-6.15,6.15,5.93,6.36,118.7,127.2,6.36,6.81M367,404.16l6.59-6.59,24-24,6.59-6.59-6.81-6.36-20.58-19.21-6.36-5.93-6.15,6.15-22.62,22.62-6.15,6.15,5.93,6.36,19.21,20.58,6.36,6.81m54.22,45.07a28,28,0,0,0,19.11-48.48l-7-6.51L427,388.31l-6.15,6.15-26.39,26.39L388.3,427l5.93,6.36,6.51,7a28.09,28.09,0,0,0,20.47,8.9M176.88,4.5a13.52,13.52,0,0,0-11.43,6.24L138.38,52.92a13.56,13.56,0,0,0,1.82,16.91l9.32,9.32L79.15,149.52l-9.32-9.32a13.56,13.56,0,0,0-16.91-1.83L10.74,165.44a13.57,13.57,0,0,0-2.27,21l121,121a13.56,13.56,0,0,0,21-2.27L177.53,263a13.56,13.56,0,0,0-1.82-16.91l-9.32-9.32,10.14-10.14,211,226.07a46.12,46.12,0,1,0,65.19-65.19l-226.07-211,10.14-10.14,9.32,9.32A13.56,13.56,0,0,0,263,177.53l42.19-27.06a13.57,13.57,0,0,0,2.27-21l-121-121a13.47,13.47,0,0,0-9.57-4h0Zm80.65,144.3L167.1,58.38l12.07-18.82,97.17,97.17L257.53,148.8h0ZM147.21,217.58L98.33,168.7,168.7,98.33l48.88,48.88-70.37,70.37h0Zm-10.48,58.77L39.56,179.18,58.38,167.1l90.42,90.43-12.07,18.82h0Zm177.68,58.28-118.7-127.2,11.72-11.72L334.62,314.42l-20.21,20.21h0Zm52.8,56.58L348,370.63,370.62,348l20.58,19.21-24,24h0Zm54,49a18.92,18.92,0,0,1-13.89-6l-6.51-7,26.39-26.39,7,6.51a19,19,0,0,1-13,32.9h0Z"/></svg>