<svg id="Layer_1" data-name="Layer 1" xmlns="http://www.w3.org/2000/svg" viewBox="0 0 625.31 404.67"><defs><style>.cls-1{fill:red;}</style></defs><title>icon</title><path class="cls-1" d="M312.66,13.5a67.81,67.81,0,1,1-67.81,67.81A67.89,67.89,0,0,1,312.66,13.5m0,115.45A47.63,47.63,0,1,0,265,81.31a47.69,47.69,0,0,0,47.63,47.63m0-124.45a76.81,76.81,0,1,0,76.81,76.81A76.9,76.9,0,0,0,312.66,4.5h0Zm0,115.45a38.63,38.63,0,1,1,38.63-38.63,38.68,38.68,0,0,1-38.63,38.63h0Z"/><path class="cls-1" d="M518.73,75.16a53.21,53.21,0,1,1-53.21,53.21,53.27,53.27,0,0,1,53.21-53.21m0,88.74a35.54,35.54,0,1,0-35.54-35.54,35.58,35.58,0,0,0,35.54,35.54m0-97.74a62.21,62.21,0,1,0,62.21,62.21,62.28,62.28,0,0,0-62.21-62.21h0Zm0,88.74a26.54,26.54,0,1,1,26.54-26.54,26.57,26.57,0,0,1-26.54,26.54h0Z"/><path class="cls-1" d="M312.66,176.45a125,125,0,0,1,66.43,19.06,126.35,126.35,0,0,1,45.47,49.62l6.66,13,8.63-11.83a98.77,98.77,0,0,1,34-29.26,96.25,96.25,0,0,1,44.91-11,97.69,97.69,0,0,1,97.58,97.34c0,0.13,0,.26,0,0.39v0.27c0,0.13,0,.26,0,0.39v82.42a8.75,8.75,0,0,1-8.74,8.74h-0.3a8.75,8.75,0,0,1-8.74-8.74V304.27c0-.21,0-0.54,0-0.76l0-.44v-0.44a79.9,79.9,0,0,0-159.79.81c0,0.14,0,.28,0,0.42v0.51l0,0.51c0,0.37.05,0.71,0.05,1v79.42a10.36,10.36,0,0,1-20.71,0V305.8c0-.15,0-0.3,0-0.46l0-.92-0.14-.91A10.11,10.11,0,0,1,418,302a105.35,105.35,0,0,0-210.71,0,10.12,10.12,0,0,1-.13,1.52l-0.14.91,0,0.92c0,0.15,0,.3,0,0.46v79.52a10.36,10.36,0,0,1-20.71,0V305.89c0-.32,0-0.65.05-1l0-.51v-0.51c0-.14,0-0.28,0-0.41a79.9,79.9,0,0,0-159.79-.81v0.44l0,0.44c0,0.22,0,.55,0,0.76v82.66A8.75,8.75,0,0,1,18,395.67h-0.3A8.75,8.75,0,0,1,9,386.94V304.51c0-.13,0-0.26,0-0.39v-0.27c0-.13,0-0.26,0-0.39a97.69,97.69,0,0,1,97.58-97.35,96.25,96.25,0,0,1,44.91,11,98.77,98.77,0,0,1,34,29.26l8.63,11.83,6.66-13a126.35,126.35,0,0,1,45.47-49.62,125,125,0,0,1,66.43-19.06m0-9A134.68,134.68,0,0,0,192.74,241,106.54,106.54,0,0,0,0,303.69c0,0.1,0,.19,0,0.29s0,0.19,0,.29v82.66a17.74,17.74,0,0,0,17.74,17.74H18a17.74,17.74,0,0,0,17.74-17.74V304.27c0-.51,0-1-0.08-1.52a70.9,70.9,0,0,1,141.79.94c0,0.11,0,.21,0,0.31-0.06.62-.1,1.25-0.1,1.89v79.42a19.36,19.36,0,0,0,38.71,0V305.89c0-.35,0-0.68-0.05-1a19,19,0,0,0,.24-2.88A96.35,96.35,0,0,1,409,302a19,19,0,0,0,.24,2.88c0,0.34-.05.68-0.05,1v79.42a19.36,19.36,0,0,0,38.71,0V305.89c0-.64,0-1.27-0.1-1.89,0-.11,0-0.21,0-0.31a70.9,70.9,0,0,1,141.79-.94c0,0.5-.08,1-0.08,1.52v82.66a17.74,17.74,0,0,0,17.74,17.74h0.3a17.74,17.74,0,0,0,17.74-17.74V304.27c0-.1,0-0.19,0-0.29s0-.19,0-0.29A106.54,106.54,0,0,0,432.57,241a134.68,134.68,0,0,0-119.92-73.59h0Z"/><path class="cls-1" d="M106.58,75.16a53.21,53.21,0,1,1-53.21,53.21,53.27,53.27,0,0,1,53.21-53.21m0,88.74A35.54,35.54,0,1,0,71,128.37a35.58,35.58,0,0,0,35.54,35.54m0-97.74a62.21,62.21,0,1,0,62.21,62.21,62.28,62.28,0,0,0-62.21-62.21h0Zm0,88.74a26.54,26.54,0,1,1,26.54-26.54,26.57,26.57,0,0,1-26.54,26.54h0Z"/></svg>