<svg id="Layer_1" data-name="Layer 1" xmlns="http://www.w3.org/2000/svg" viewBox="0 0 418.73 419.32"><defs><style>.cls-1{fill:red;}</style></defs><title>icon</title><path class="cls-1" d="M82.1,9a36.69,36.69,0,0,1,30.72,16.48l36.59,55.37,0,0,0,0a38.42,38.42,0,0,1,3.91,35.26l-19.17,49.49-1.77,4.58,2.89,4c40,54.91,74.71,89.31,112.6,111.56l3.84,2.25,4.12-1.68,46.25-18.89a43.22,43.22,0,0,1,39,3.33l52.54,32.86a34.32,34.32,0,0,1,7.73,51.5L370.1,391.31a55.24,55.24,0,0,1-61.69,15.26C243.47,381.13,168,326.24,106.61,259.75c-32.41-35.09-57.45-69.61-74.42-102.6-16.36-31.82-24.34-61.21-23.06-85,0.08-1.52.08-1.52,0.69-2.39,1.4-2,4.61-5.36,9.92-10.94l0,0c6.67-7,17.83-18.74,35.49-38.1a37,37,0,0,1,6.65-5.63A36.5,36.5,0,0,1,82.1,9M328.38,399.09a43.92,43.92,0,0,0,33.21-15.14l31.31-36.17a23.15,23.15,0,0,0,2.11-2.86,23.05,23.05,0,0,0-7.32-31.77L335.16,280.3a31.84,31.84,0,0,0-28.8-2.46L253.55,299.4a5.57,5.57,0,0,1-4.82-.27c-43.19-23.6-82.42-62.11-127.21-124.85a5.6,5.6,0,0,1-.67-5.29l22-56.88a27.25,27.25,0,0,0-2.78-25L103.46,31.64a25.51,25.51,0,0,0-39.93-3.32L22.66,72.2,20.2,74.84l0,3.61c0.23,18.62,6.15,40.28,17.6,64.38,11.18,23.54,27.33,48.81,48,75.1,61.68,78.47,150.64,148.4,226.66,178.17a43.58,43.58,0,0,0,15.88,3M82.1,0A45.66,45.66,0,0,0,48.67,14.59C31,34,19.88,45.65,13.23,52.64,1.67,64.79.46,66.06,0.15,71.68-2.63,123.37,33.76,194.15,100,265.85,162.3,333.3,239,389,305.12,414.95a64.24,64.24,0,0,0,71.77-17.74L408.19,361a43.28,43.28,0,0,0-9.77-65l-52.54-32.86a52.22,52.22,0,0,0-47.16-4L252.46,278c-36.68-21.53-70.77-55.38-109.88-109.09l19.17-49.49a47.46,47.46,0,0,0-4.83-43.53L120.33,20.51A45.73,45.73,0,0,0,82.1,0h0ZM328.38,390.08a34.72,34.72,0,0,1-12.61-2.37c-74.61-29.22-162.08-98-222.85-175.35-40.71-51.79-63.24-99.26-63.67-134L70.11,34.45A16.5,16.5,0,0,1,96,36.61l36.66,55.48a18.24,18.24,0,0,1,1.87,16.77l-22,56.88a14.58,14.58,0,0,0,1.73,13.77C159.81,243.41,200,282.74,244.41,307a14.57,14.57,0,0,0,12.54.71l52.81-21.57a22.84,22.84,0,0,1,20.64,1.77l52.52,32.84a14.05,14.05,0,0,1,4.46,19.37,14.12,14.12,0,0,1-1.29,1.74l-31.31,36.17a35,35,0,0,1-26.41,12h0Z"/></svg>