<svg id="Layer_1" data-name="Layer 1" xmlns="http://www.w3.org/2000/svg" viewBox="0 0 466.81 470.29"><defs><style>.cls-1{fill:red;}.cls-2{fill:none;stroke:red;stroke-miterlimit:10;stroke-width:9px;}</style></defs><title>icon</title><path class="cls-1" d="M212.82,336q0.58,4.15,1.42,8.25H105.76a4.13,4.13,0,0,1,0-8.25H212.82m8.06-9H105.76a13.13,13.13,0,0,0,0,26.25h120A128.89,128.89,0,0,1,220.88,327h0Z"/><path class="cls-1" d="M213.85,291q-0.77,4.1-1.29,8.25H105.76a4.13,4.13,0,0,1,0-8.25H213.85m11.31-9H105.76a13.13,13.13,0,0,0,0,26.25h115A129,129,0,0,1,225.17,282h0Z"/><path class="cls-1" d="M230.84,246q-2.41,4-4.54,8.25H105.76a4.13,4.13,0,0,1,0-8.25H230.84m17-9H105.76a13.13,13.13,0,0,0,0,26.25H232A129.35,129.35,0,0,1,247.89,237h0Z"/><path class="cls-1" d="M273.87,201a138.14,138.14,0,0,0-11.28,8.25H105.76a4.13,4.13,0,0,1,0-8.25H273.87m41.2-9H105.76a13.13,13.13,0,0,0,0,26.25H265.85A129.06,129.06,0,0,1,315.08,192h0Z"/><path class="cls-1" d="M272.41,13.5l0.15,0,0.39,0a4.09,4.09,0,0,1,1,.21l0,0h0l0.14,0h0.07l0.14,0a4.06,4.06,0,0,1,1.17.8l105,105a4.17,4.17,0,0,1,.83,1.21l0,0.15,0,0.1,0,0.11,0,0.11a3.63,3.63,0,0,1,.18.81l0.05,0.53,0.05,0.23V182q-4.1-1-8.25-1.68V126.76H272.65a4.13,4.13,0,0,1-4.13-4.13V21.75H66.76V403.54H242.14q3.45,4.27,7.22,8.25H62.63a4.13,4.13,0,0,1-4.13-4.13V51.76H21.75V448.54H307.83a137.86,137.86,0,0,0,28.57,5.85,4.13,4.13,0,0,1-3.75,2.4h-315a4.13,4.13,0,0,1-4.13-4.13v-405a4.13,4.13,0,0,1,4.13-4.13H58.5V17.63a4.13,4.13,0,0,1,4.13-4.13H272.41m4.37,105H367.7l-15.36-15.36L292.14,43,276.78,27.59v90.92m-4.13-114h-210A13.14,13.14,0,0,0,49.5,17.63V34.5H17.63A13.14,13.14,0,0,0,4.5,47.63v405a13.14,13.14,0,0,0,13.13,13.13h315a13.14,13.14,0,0,0,13.13-13.13V446a129,129,0,0,1-36.52-6.43H30.75V60.76H49.5V407.66a13.14,13.14,0,0,0,13.13,13.13H273.05a130.14,130.14,0,0,1-26.53-26.25H75.76V30.75H259.52v91.88a13.14,13.14,0,0,0,13.13,13.13h91.88v52.36a128.65,128.65,0,0,1,26.25,5.78V122.64a6.21,6.21,0,0,0-.15-1.36,12.59,12.59,0,0,0-.63-2.86l0-.1a9.53,9.53,0,0,0-.4-1.08,13.14,13.14,0,0,0-2.66-3.88l-105-105A13.05,13.05,0,0,0,278,5.69a10,10,0,0,0-1-.39l-0.14,0a13.09,13.09,0,0,0-3.15-.66,6.2,6.2,0,0,0-1.06-.09h0Zm13.13,105V49.31l60.2,60.2h-60.2Z"/><path class="cls-2" d="M350.55,230.93a86.44,86.44,0,1,1-86.44,86.44,86.53,86.53,0,0,1,86.44-86.44m0-25.31A111.75,111.75,0,1,0,462.31,317.37,111.75,111.75,0,0,0,350.55,205.62h0Z"/><path class="cls-1" d="M396.27,273.63a3.58,3.58,0,0,1,2,.61,3.66,3.66,0,0,1,1,5.07l-56.25,84.38a3.67,3.67,0,0,1-2.89,1.63H340a3.64,3.64,0,0,1-2.86-1.38l-43.6-54.85a3.66,3.66,0,1,1,5.73-4.55l32.79,41.25,7.68,9.67,6.85-10.27,46.62-69.93a3.67,3.67,0,0,1,3.06-1.63m0-9a12.65,12.65,0,0,0-10.54,5.64l-46.62,69.93-32.79-41.25A12.66,12.66,0,1,0,286.5,314.7l43.6,54.85a12.66,12.66,0,0,0,9.91,4.78h0.53a12.66,12.66,0,0,0,10-5.63l56.25-84.38a12.66,12.66,0,0,0-10.52-19.68h0Z"/></svg>